# xmcd CD database file
#
# Track frame offsets:
#	150
#	11485
#	27897
#	40864
#	52185
#	69585
#	80402
#	92790
#	108715
#	121220
#	132027
#
# Disc length: 1909 seconds
#
# Revision: 0
# Processed by: cddbd v1.5.2PL0 Copyright (c) Steve Scherf et al.
# Submitted via: CDex 1.51
#
DISCID=8e07730b
DTITLE=John Lee Hooker - Burnin'
DYEAR=1900
DGENRE=Blues
TTITLE0=Boom Boom
TTITLE1=Process
TTITLE2=Lost A Good Girl
TTITLE3=A New Leaf
TTITLE4=Blues Before Sunrise
TTITLE5=Let's Make It
TTITLE6=I Got A Letter
TTITLE7=Thelma
TTITLE8=Drug Store Woman
TTITLE9=Keep Your Hands To Yourself
TTITLE10=What Do You Say
EXTD=
EXTT0=
EXTT1=
EXTT2=
EXTT3=
EXTT4=
EXTT5=
EXTT6=
EXTT7=
EXTT8=
EXTT9=
EXTT10=
PLAYORDER=
